<?xml version="1.0" encoding="UTF-8"?>
<svg width="15px" height="15px" viewBox="0 0 15 15" version="1.1" xmlns="http://www.w3.org/2000/svg" xmlns:xlink="http://www.w3.org/1999/xlink">
    <!-- Generator: Sketch 52.3 (67297) - http://www.bohemiancoding.com/sketch -->
    <title>Mask</title>
    <desc>Created with Sketch.</desc>
    <defs>
        <path d="M26.6455153,26.3224333 L22.5224384,22.2301256 C23.3532076,21.0608949 23.7839769,19.5839718 23.5685923,18.014741 C23.1993615,15.3685872 21.0455153,13.2762795 18.3685923,13.0301256 C14.737823,12.6608949 11.6608999,15.7378179 12.0301307,19.3993564 C12.2762846,22.0455103 14.3685923,24.2301256 17.0147461,24.5993564 C18.5839769,24.814741 20.0608999,24.3839718 21.2301307,23.5532026 L25.3224384,27.6455103 C25.5070538,27.8301256 25.7839769,27.8301256 25.9685923,27.6455103 L26.6147461,26.9993564 C26.7993615,26.814741 26.7993615,26.5070487 26.6455153,26.3224333 L26.6455153,26.3224333 Z M13.8455153,18.814741 C13.8455153,16.6301256 15.6301307,14.8455103 17.8147461,14.8455103 C19.9993615,14.8455103 21.7839769,16.6301256 21.7839769,18.814741 C21.7839769,20.9993564 19.9993615,22.7839718 17.8147461,22.7839718 C15.6301307,22.7839718 13.8455153,21.0301256 13.8455153,18.814741 L13.8455153,18.814741 Z" id="path-1"></path>
    </defs>
    <g id="Symbols" stroke="none" stroke-width="1" fill="none" fill-rule="evenodd">
        <g id="search---Placeholder" transform="translate(-12.000000, -13.000000)">
            <g id="Input--Icon-to-left">
                <mask id="mask-2" fill="white">
                    <use xlink:href="#path-1"></use>
                </mask>
                <use id="Mask" fill="#A8B7C7" xlink:href="#path-1"></use>
            </g>
        </g>
    </g>
</svg>